<?xml version="1.0" encoding="UTF-8"?>
<svg id="Calque_2" data-name="Calque 2" xmlns="http://www.w3.org/2000/svg" viewBox="0 0 585.32 558.13">
  <defs>
    <style>
      .cls-1 {
        letter-spacing: 0em;
      }

      .cls-2, .cls-3 {
        fill: #eaeaea;
      }

      .cls-3 {
        font-family: MyriadPro-Regular, 'Myriad Pro';
        font-size: 90px;
      }

      .cls-4 {
        fill: #237aba;
      }

      .cls-5 {
        letter-spacing: -.08em;
      }

      .cls-6 {
        letter-spacing: 0em;
      }

      .cls-7 {
        letter-spacing: 0em;
      }
    </style>
  </defs>
  <g id="Calque_1-2" data-name="Calque 1">
    <g>
      <g id="cercle_interieur" data-name="cercle interieur">
        <path class="cls-2" d="M292.66,114.97c43.83,0,85.04,17.07,116.03,48.06,30.99,30.99,48.06,72.2,48.06,116.03s-17.07,85.04-48.06,116.03c-30.99,30.99-72.2,48.06-116.03,48.06s-85.04-17.07-116.03-48.06c-30.99-30.99-48.06-72.2-48.06-116.03s17.07-85.04,48.06-116.03c30.99-30.99,72.2-48.06,116.03-48.06M292.66,113.97h0c-91.18,0-165.09,73.91-165.09,165.09h0c0,91.18,73.91,165.09,165.09,165.09h0c91.18,0,165.09-73.91,165.09-165.09h0c0-91.18-73.91-165.09-165.09-165.09h0Z"/>
      </g>
      <g id="Cercle_interieur" data-name="Cercle interieur">
        <path class="cls-2" d="M292.66,5.4c36.94,0,72.78,7.24,106.52,21.51,32.59,13.78,61.85,33.52,86.99,58.65,25.13,25.13,44.86,54.4,58.65,86.99,14.27,33.74,21.51,69.58,21.51,106.52s-7.24,72.78-21.51,106.52c-13.78,32.59-33.52,61.85-58.65,86.99-25.13,25.13-54.4,44.86-86.99,58.65-33.74,14.27-69.58,21.51-106.52,21.51s-72.78-7.24-106.52-21.51c-32.59-13.78-61.85-33.52-86.99-58.65s-44.86-54.4-58.65-86.99c-14.27-33.74-21.51-69.58-21.51-106.52s7.24-72.78,21.51-106.52c13.78-32.59,33.52-61.85,58.65-86.99,25.13-25.13,54.4-44.86,86.99-58.65,33.74-14.27,69.58-21.51,106.52-21.51M292.66,4.4h0C140.97,4.4,18,127.37,18,279.06h0c0,151.69,122.97,274.66,274.66,274.66h0c151.69,0,274.66-122.97,274.66-274.66h0C567.32,127.37,444.35,4.4,292.66,4.4h0Z"/>
      </g>
      <g>
        <path class="cls-2" d="M183.99,92.76c-8.48,3.16-16.86,6.69-25.12,10.6,3.12,6.59,6.24,13.18,9.36,19.76,8.56-4.06,17.27-7.68,26.1-10.87.74,2.06,1.49,4.12,2.23,6.18-11.2,4.04-22.21,8.81-32.96,14.28-9.18-18.02-18.36-36.03-27.54-54.05,12.5-6.37,25.29-11.94,38.29-16.71.75,2.06,1.51,4.11,2.26,6.17-9.71,3.56-19.29,7.58-28.73,12.04,2.74,5.77,5.47,11.55,8.21,17.32,8.42-3.99,16.97-7.6,25.63-10.82.75,2.02,1.51,4.05,2.26,6.07Z"/>
        <path class="cls-2" d="M210.94,57.66c-7.36,1.85-14.68,3.95-21.93,6.3-.68-2.11-1.37-4.22-2.05-6.34,18.01-5.83,36.37-10.16,54.92-12.98.33,2.19.67,4.39,1,6.58-7.51,1.14-14.99,2.54-22.43,4.18,3.89,17.57,7.78,35.15,11.67,52.72-2.68.59-5.34,1.22-8.01,1.89-4.39-17.46-8.78-34.91-13.17-52.37Z"/>
        <path class="cls-2" d="M265.59,41.86c.99,11.93,1.98,23.86,2.97,35.79,1.21,13.55,7.99,18.7,16.44,18.43,9.39-.29,15.56-6.01,15.92-19.43.25-11.97.5-23.93.75-35.9,3.3.07,6.6.18,9.89.35-.58,11.78-1.16,23.55-1.74,35.33-1.11,18.62-11.53,25.61-24.9,26.06-12.65.41-22.96-5.45-25.23-24.15-1.32-11.84-2.64-23.67-3.96-35.51,3.28-.37,6.57-.69,9.86-.96Z"/>
        <path class="cls-2" d="M334.01,43.73c6-.04,13.13.39,20.81,1.74,13.93,2.46,23.19,7.53,28.21,13.99,5.17,6.52,6.72,14.37,3.86,23.75-2.88,9.48-8.53,16.19-15.81,20.01-7.35,3.9-17.41,4.55-29.4,2.55-5.69-.95-10.44-1.84-14.46-2.76,2.26-19.76,4.53-39.52,6.79-59.28ZM336.11,98.08c2.02.65,5.01,1.2,8.2,1.75,17.23,3.03,28.94-3.12,33.41-18.96,3.97-13.64-3.25-25.49-23.53-29.2-4.92-.87-8.71-1.07-11.29-.98-2.26,15.8-4.52,31.6-6.78,47.4Z"/>
        <path class="cls-2" d="M435.32,105.97c-8.2-4.07-16.53-7.77-24.96-11.09-2.67,6.78-5.34,13.57-8.01,20.35,8.75,3.45,17.38,7.33,25.86,11.65-.99,1.95-1.99,3.9-2.98,5.85-10.75-5.48-21.76-10.24-32.96-14.28,6.87-19.02,13.73-38.04,20.6-57.05,13.02,4.7,25.83,10.21,38.35,16.51-.98,1.96-1.97,3.91-2.95,5.87-9.35-4.71-18.86-8.96-28.51-12.75-2.34,5.95-4.68,11.89-7.02,17.84,8.61,3.39,17.11,7.16,25.47,11.32-.96,1.93-1.92,3.87-2.88,5.8Z"/>
      </g>
      <g id="Cercle_exterieur" data-name="Cercle exterieur">
        <path class="cls-2" d="M296.46,111.17c43.83,0,85.04,17.07,116.03,48.06,30.99,30.99,48.06,72.2,48.06,116.03v7.6c0,43.83-17.07,85.04-48.06,116.03-30.99,30.99-72.2,48.06-116.03,48.06h-7.6c-43.83,0-85.04-17.07-116.03-48.06-30.99-30.99-48.06-72.2-48.06-116.03v-7.6c0-43.83,17.07-85.04,48.06-116.03,30.99-30.99,72.2-48.06,116.03-48.06h7.6M296.46,110.17h-7.6c-91.18,0-165.09,73.91-165.09,165.09v7.6c0,91.18,73.91,165.09,165.09,165.09h7.6c91.18,0,165.09-73.91,165.09-165.09v-7.6c0-91.18-73.91-165.09-165.09-165.09h0Z"/>
      </g>
      <g id="Cercle_exterieur-2" data-name="Cercle exterieur">
        <path class="cls-2" d="M297.06,1c36.94,0,72.78,7.24,106.52,21.51,32.59,13.78,61.85,33.52,86.99,58.65,25.13,25.13,44.86,54.4,58.65,86.99,14.27,33.74,21.51,69.58,21.51,106.52v8.81c0,36.94-7.24,72.78-21.51,106.52-13.78,32.59-33.52,61.85-58.65,86.99-25.13,25.13-54.4,44.86-86.99,58.65-33.74,14.27-69.58,21.51-106.52,21.51h-8.81c-36.94,0-72.78-7.24-106.52-21.51-32.59-13.78-61.85-33.52-86.99-58.65-25.13-25.13-44.86-54.4-58.65-86.99-14.27-33.74-21.51-69.58-21.51-106.52v-8.81c0-36.94,7.24-72.78,21.51-106.52,13.78-32.59,33.52-61.85,58.65-86.99,25.13-25.13,54.4-44.86,86.99-58.65C215.47,8.24,251.31,1,288.25,1h8.81M297.06,0h-8.81C136.56,0,13.59,122.97,13.59,274.66v8.81c0,151.69,122.97,274.66,274.66,274.66h8.81c151.69,0,274.66-122.97,274.66-274.66v-8.81C571.72,122.97,448.75,0,297.06,0h0Z"/>
      </g>
      <g id="Rectangle_2" data-name="Rectangle 2">
        <rect class="cls-4" x=".5" y="231.75" width="584.32" height="94.64"/>
        <path class="cls-2" d="M584.32,232.25v93.64H1v-93.64h583.32M585.32,231.25H0v95.64h585.32v-95.64h0Z"/>
      </g>
      <g id="Rectangle_1" data-name="Rectangle 1">
        <rect class="cls-4" x="4.6" y="238.39" width="575.55" height="83.34"/>
        <path class="cls-2" d="M579.65,238.89v82.34H5.1v-82.34h574.55M580.65,237.89H4.1v84.34h576.55v-84.34h0Z"/>
      </g>
      <text class="cls-3" transform="translate(92.63 312.18)"><tspan x="0" y="0">G</tspan><tspan class="cls-7" x="58.14" y="0">R</tspan><tspan class="cls-5" x="107.01" y="0">A</tspan><tspan x="155.16" y="0">TUI</tspan><tspan class="cls-6" x="279.63" y="0">T</tspan><tspan class="cls-1" x="323.82" y="0">S</tspan></text>
      <g>
        <path class="cls-2" d="M169.88,495.71c-1.3-2.28-2.48-4.54-4.12-7.84-7.34,2.42-14.55,1.76-21.73-1.4-12.8-5.67-16.36-16.57-12.17-24.59,3.79-7.37,11.23-9.89,19.56-10.19.04-.08.08-.16.11-.24-1.4-5.02-1.26-9.86.63-13.75,3.27-6.64,11.29-11.04,20.37-7.14,6.82,2.92,10.42,9.63,7.68,16.98-2.26,5.94-7.61,9.44-19.01,9.79-.04.08-.07.17-.11.25,2.72,7.63,6.2,16.17,8.77,21.74,4.42-2.86,8.36-7.67,12.1-14.45,2.41.86,4.84,1.69,7.26,2.49-4.63,8.51-9.79,14.77-16.4,18.04,2.3,4.46,4.61,8.88,7.38,13.86-3.45-1.13-6.9-2.31-10.32-3.54ZM163.24,482.08c-2.39-5.18-6.66-14.89-10.13-24.97-4.05.45-10.28,1.77-13.07,7.51-3.04,6.22.03,13.64,7.82,17.04,5.56,2.42,11.19,2.16,15.38.42ZM159.21,440.21c-1.8,3.93-1.3,7.82-.06,11.91,7.38-.59,12.41-2.1,14.32-6.85,1.37-3.43.99-8.02-3.56-9.97-4.63-1.99-8.73.65-10.7,4.91Z"/>
        <path class="cls-2" d="M232.13,451.35c4.72.27,10.23.8,16.19,1.76,10.79,1.74,18.18,5.09,23.01,10.49,4.89,5.4,7.7,12.58,7.1,22.38-.6,9.87-4.41,17.79-11.29,22.79-6.85,5.08-18.02,7.02-31.48,4.73-6.36-1.08-11.63-2.41-16.01-3.8,4.16-19.45,8.32-38.9,12.48-58.35ZM229.64,505.56c2.15.77,5.36,1.45,8.79,2.02,18.96,3.05,30.08-5.72,31.34-21.97,1.22-14.33-6.03-23.78-22.1-26.3-3.96-.64-7.01-.84-9.12-.78-2.97,15.68-5.94,31.36-8.92,47.04Z"/>
        <path class="cls-2" d="M327.34,489.03c-8.37.62-16.75.95-25.13.98.03,7.29.06,14.58.09,21.87,9.91-.04,19.82-.47,29.71-1.28.18,2.18.36,4.36.54,6.55-13.05,1.07-26.15,1.48-39.23,1.23.39-20.22.78-40.43,1.17-60.65,10.6.2,21.21-.11,31.79-.93.17,2.18.34,4.37.51,6.55-8.21.64-16.44.98-24.67,1.01.03,6.39.05,12.78.08,19.17,8.23-.03,16.46-.35,24.68-.96.16,2.15.32,4.31.48,6.46Z"/>
        <path class="cls-2" d="M365.48,513.02c-10.89-18.67-20.62-37.75-29.2-57.16,2.73-.3,5.45-.63,8.17-.99,4.37,9.46,9.01,18.84,13.92,28.13,4.06,7.64,7.79,14.47,10.87,21.13.07-.01.13-.02.2-.04.64-7.25,1.94-15.29,3.16-23.62,1.56-10.52,2.81-21.03,3.76-31.52,2.65-.63,5.3-1.29,7.94-1.99-1.68,21.36-4.68,42.82-9,64.27-3.27.64-6.54,1.24-9.82,1.79Z"/>
        <path class="cls-2" d="M402.08,441.73c6.26,19.23,12.51,38.45,18.77,57.68-2.89.94-5.79,1.85-8.7,2.72-5.8-19.37-11.6-38.74-17.41-58.11,2.45-.73,4.9-1.5,7.34-2.29Z"/>
        <path class="cls-2" d="M436.24,483.84c4.51.59,10.69.06,16.43-2.43,8.54-3.71,11.59-9.95,8.92-15.44-2.46-5.13-7.12-6.39-16.56-5.68-11.32,1.1-19.24-1.49-22.24-9.47-3.29-8.89,1.46-18.07,12.01-22.81,5.6-2.52,10.23-3.21,13.34-3.05.31,2.23.6,4.46.88,6.7-2.3-.07-6.77.11-11.81,2.38-7.6,3.39-8.7,9.09-7.14,12.95,2.14,5.23,6.76,6.45,16.28,5.73,11.64-.94,19.02.72,23.09,8.67,4.31,8.24.77,19.44-14.78,26.22-6.33,2.74-13.95,3.89-18.22,3.18-.05-2.32-.12-4.64-.2-6.95Z"/>
      </g>
    </g>
  </g>
</svg>