<?xml version="1.0" encoding="UTF-8"?>
<svg id="Calque_2" data-name="Calque 2" xmlns="http://www.w3.org/2000/svg" viewBox="0 0 1258.32 446.45">
  <defs>
    <style>
      .cls-1 {
        fill: none;
        stroke: #09c;
        stroke-miterlimit: 10;
        stroke-width: 34px;
      }

      .cls-2 {
        fill: #09c;
      }
    </style>
  </defs>
  <g id="Calque_1-2" data-name="Calque 1">
    <g>
      <g>
        <path class="cls-2" d="M47.16,446.45h-14.11l9.84-36.72c.5-1.87-.16-2.38-1.81-2.38h-16.49l-10.48,39.1H0l14.01-52.28h33.41c8.42,0,12.6,4.32,10.18,13.32l-10.44,38.96Z"/>
        <path class="cls-2" d="M107.28,446.45h-27.65c-9,0-12.46-4.82-10.15-13.46l6.71-25.06c2.57-9.58,9.23-13.75,17.44-13.75h27.65l-3.53,13.18h-25.63c-1.15,0-1.7.43-2.07,1.8l-1.45,5.4h20.31l-3.53,13.18h-20.31l-1.04,3.89c-.27,1.01-.01,1.66,1.14,1.66h25.63l-3.53,13.18Z"/>
        <path class="cls-2" d="M182.92,407.35h-17.35l-10.48,39.1h-14.19l10.48-39.1h-17.35l3.53-13.18h48.89l-3.53,13.18Z"/>
        <path class="cls-2" d="M247.07,407.35h-17.35l-10.48,39.1h-14.19l10.48-39.1h-17.35l3.53-13.18h48.89l-3.53,13.18Z"/>
        <path class="cls-2" d="M304.37,432.91c-2.51,9.36-8.52,13.54-17.96,13.54h-18.43c-10.08,0-12.99-5.26-10.79-13.46l6.79-25.35c2.43-9.07,8.94-13.46,18.01-13.46h18.43c9.94,0,13.19,4.25,10.7,13.54l-6.75,25.2ZM296.38,409.8c.5-1.87.08-2.45-1.79-2.45h-13.9c-1.87,0-2.6.58-3.1,2.45l-5.63,21.03c-.52,1.94-.22,2.45,1.79,2.45h13.9c2.09,0,2.58-.5,3.1-2.45l5.63-21.03Z"/>
        <path class="cls-2" d="M372.32,411.24c-2.64,9.87-11.29,15.27-20.44,20.38l-3.97,14.83h-14.19l3.97-14.83c-6.48-5.11-12.08-10.8-9.54-20.31l4.59-17.14h14.19l-3.99,14.91c-1.14,4.25.37,6.7,4.88,11.09,6.59-4.18,9.73-6.77,10.89-11.09l3.99-14.91h14.19l-4.57,17.07Z"/>
        <path class="cls-2" d="M428.19,446.45h-14.19l3.53-13.18h-18.87l-3.53,13.18h-14.26l10.42-38.88c2.59-9.65,9.49-13.39,18.49-13.39h17.5c9.14,0,14.04,3.24,11.26,13.61l-10.36,38.67ZM421.08,420.02l2.93-10.94c.29-1.08-.18-1.73-1.48-1.73h-15.19c-.94,0-1.86.5-2.17,1.66l-2.95,11.02h18.87Z"/>
        <path class="cls-2" d="M497.65,433.34c-2.22,8.28-8.12,13.11-16.98,13.11h-19.8c-9,0-12.72-4.68-10.4-13.32l6.97-25.99c2.35-8.79,9.02-12.96,17.87-12.96h29.88l-3.53,13.18h-28.44c-1.22,0-1.92.72-2.17,1.66l-6.02,22.47c-.31,1.15.09,1.8,1.1,1.8h15.84c1.15,0,1.7-.43,1.97-1.44l.52-1.94h-9.65l3.34-12.46h23.76l-4.26,15.91Z"/>
        <path class="cls-2" d="M553.54,446.45h-27.65c-9,0-12.46-4.82-10.15-13.46l6.71-25.06c2.57-9.58,9.23-13.75,17.44-13.75h27.65l-3.53,13.18h-25.63c-1.15,0-1.7.43-2.07,1.8l-1.45,5.4h20.31l-3.53,13.18h-20.31l-1.04,3.89c-.27,1.01-.01,1.66,1.14,1.66h25.63l-3.53,13.18Z"/>
        <path class="cls-2" d="M660.05,433.2h-4.68c-2.47,9.22-8.81,13.25-17.88,13.25h-18.36c-10.58,0-13.12-5.04-10.87-13.46l1.58-5.91c1.35-5.04,3.73-7.99,7.26-9.07-1.33-1.22-1.23-3.74-.61-6.05l1.16-4.32c2.37-8.86,8.14-13.46,17.94-13.46h21.02l-3.53,13.18h-19.58c-1.37,0-1.73.29-2.14,1.8l-.56,2.09c-.35,1.3.04,1.73,1.12,1.73h7.34l-3.47,12.96h-9.86c-1.3,0-1.75.36-1.96,1.15l-1.25,4.68c-.35,1.3-.26,1.51.82,1.51h15.27c2.16,0,2.53-.29,3.1-2.45l2.7-10.08h18.79l-3.34,12.46Z"/>
        <path class="cls-2" d="M749.73,446.45h-27.65c-9,0-12.46-4.82-10.15-13.46l6.71-25.06c2.57-9.58,9.23-13.75,17.44-13.75h27.65l-3.53,13.18h-25.63c-1.15,0-1.7.43-2.07,1.8l-1.45,5.4h20.3l-3.53,13.18h-20.3l-1.04,3.89c-.27,1.01-.01,1.66,1.14,1.66h25.63l-3.53,13.18Z"/>
        <path class="cls-2" d="M815.61,446.45h-14.11l9.84-36.72c.5-1.87-.16-2.38-1.81-2.38h-16.49l-10.48,39.1h-14.11l14.01-52.28h33.41c8.43,0,12.6,4.32,10.18,13.32l-10.44,38.96Z"/>
        <path class="cls-2" d="M891.97,407.35h-17.35l-10.48,39.1h-14.19l10.48-39.1h-17.35l3.53-13.18h48.89l-3.53,13.18Z"/>
        <path class="cls-2" d="M946.8,446.45h-14.11l2.93-10.95c.5-1.87-.05-2.23-2.71-2.23h-16.06l-3.53,13.18h-14.11l14.01-52.28h30.39c10.08,0,13.09,3.82,10.51,13.46l-2.66,9.94c-1.02,3.82-2.12,6.05-4.4,7.27,2.95,1.08,4.6,3.53,3.29,8.42l-3.53,13.18ZM939.26,410.09c.52-1.94.16-2.74-1.93-2.74h-13.54l-3.42,12.75h13.47c2.3,0,2.93-.72,3.53-2.95l1.89-7.06Z"/>
        <path class="cls-2" d="M1005.47,446.45h-27.65c-9,0-12.46-4.82-10.14-13.46l6.71-25.06c2.57-9.58,9.23-13.75,17.44-13.75h27.65l-3.53,13.18h-25.63c-1.15,0-1.7.43-2.07,1.8l-1.45,5.4h20.31l-3.53,13.18h-20.31l-1.04,3.89c-.27,1.01-.01,1.66,1.14,1.66h25.63l-3.53,13.18Z"/>
        <path class="cls-2" d="M1081.11,407.35h-17.35l-10.48,39.1h-14.19l10.48-39.1h-17.35l3.53-13.18h48.89l-3.53,13.18Z"/>
        <path class="cls-2" d="M1102.53,446.45h-14.19l14.01-52.28h14.19l-14.01,52.28Z"/>
        <path class="cls-2" d="M1163.37,446.45h-27.65c-9,0-12.46-4.82-10.14-13.46l6.71-25.06c2.57-9.58,9.23-13.75,17.44-13.75h27.65l-3.53,13.18h-25.63c-1.15,0-1.7.43-2.07,1.8l-1.45,5.4h20.31l-3.53,13.18h-20.31l-1.04,3.89c-.27,1.01-.01,1.66,1.14,1.66h25.63l-3.53,13.18Z"/>
        <path class="cls-2" d="M1229.25,446.45h-14.11l9.84-36.72c.5-1.87-.16-2.38-1.81-2.38h-16.49l-10.48,39.1h-14.11l14.01-52.28h33.41c8.43,0,12.6,4.32,10.18,13.32l-10.44,38.96Z"/>
      </g>
      <g>
        <path class="cls-1" d="M433.64,266.39c-7.97,45.2-40.55,71.2-92.95,71.2h-159.6l12.91-73.2h149.2c9.6,0,12.82-2.4,14.02-9.2l2.4-13.6c.99-5.6-1.39-8-10.59-8h-71.6c-44.4,0-75.6-13.6-66.5-65.2l8.89-50.4c8.46-48,44.48-70.8,92.88-70.8h136.4l-12.91,73.2h-127.6c-7.6,0-11.29,2.8-12.49,9.6l-3.67,20.8c-1.13,6.4,1.58,9.2,10.38,9.2h72.8c48.8,0,73.48,18.8,64.24,71.2l-6.21,35.2Z"/>
        <path class="cls-1" d="M714.98,120.39h-96.4l-38.3,217.2h-78.8l38.3-217.2h-96.4l12.91-73.2h271.6l-12.91,73.2Z"/>
        <path class="cls-1" d="M1049.93,337.59h-80.38l36.19-205.23c2.3-13.06-1.61-16.32-10.18-16.32h-40.39c-8.57,0-13.44,4.49-15.45,15.91l-36.26,205.63h-80.38l36.19-205.23c2.09-11.83-2.02-16.32-10.59-16.32h-37.94c-8.16,0-15.48,4.49-17.64,16.73l-36.12,204.82h-80.38l37.99-215.43c8.99-51,44.44-80.78,92.58-80.78h67.32c18.36,0,30.96,4.9,38.33,16.32,10.92-11.02,25.32-16.32,42.86-16.32h68.54c47.33,0,72.53,30.6,64.12,78.34l-38.42,217.87Z"/>
      </g>
      <text/>
      <text/>
    </g>
  </g>
</svg>