<svg xmlns="http://www.w3.org/2000/svg" xmlns:xlink="http://www.w3.org/1999/xlink" viewBox="0 0 197.99846 197.48656">
    <defs>
        <style>.a,.e{fill:none;}.b{fill:#fff;}.c{fill:#001f5a;}.d{fill:#fd0;}.e{stroke:#fff;}.f{clip-path:url(#a);}
        </style>
        <clipPath id="a" transform="translate(-42.73306 -42.98949)">
            <rect class="a" x="105.8057" y="57.10687" width="77.52245" height="60.04716"/>
        </clipPath>
    </defs>
    <path class="b"
          d="M233.39671,212.5579c-31.3369,13.0193-62.25026,17.32324-89.43847,17.32383a272.57389,272.57389,0,0,1-65.1302-8.03255c-8.06929-2.0071-14.48556-4.01078-18.85908-5.50346-2.187-.74607-3.8631-1.364-4.98045-1.79044-.55867-.21324-.97709-.37881-1.25013-.488q-.20437-.0828-.29947-.1213l-.0655-.02761-.01207-.00459-.00059-.00058-.84148,2.01174.8426-2.01116-.00112-.00058-.84148,2.01174.8426-2.01116-1.67084,3.9913,1.672-3.99071-.00118-.00059-1.67084,3.9913,1.672-3.99071h0l-.35291.8426.4891-.77362a.91585.91585,0,0,0-.13619-.069l-.35291.8426.4891-.77362-.17416.27475.192-.26268-.01784-.01207-.17416.27475.192-.26268-.04309.05862.04426-.0575-.00117-.00112-.04309.05862.04426-.0575a.8876.8876,0,0,1-.16438-.20859l-.01954-.04026-.00118-.00171-.92653.34084.96967-.00517a1.02771,1.02771,0,0,0-.04314-.33567l-.92653.34084.96967-.00517v.02872L53.32856,61.50431,48.0314,61.506l1.53235,5.07067a315.45079,315.45079,0,0,1,91.06969-12.99287,355.16025,355.16025,0,0,1,64.78366,5.97367c7.96121,1.49156,14.266,2.98083,18.5596,4.09129,2.14617.55467,3.79006,1.01505,4.88616,1.33294.54837.15862.95932.28222,1.22829.36439.13449.04079.23337.07128.29606.09082l.06663.02071.01265.004.00117.00058.56386-1.77266-.56444,1.77266h.00058l.56386-1.77266-.56444,1.77266,1.23694-3.88264-1.23865,3.88206.00171.00058,1.23694-3.88264-1.23865,3.88206.02066.00629.02013.00635.25-.80586-.50405.68974a.88019.88019,0,0,0,.254.11612l.25-.80586-.50405.68974.01377-.019-.02125.01206.00748.00689.01377-.019-.02125.01206.54661-.30805-.59952.17239a.61127.61127,0,0,0,.05291.13566l.54661-.30805-.59952.17239,1.495-.43048h-1.54959a1.58226,1.58226,0,0,0,.05455.43048l1.495-.43048h-1.54959L230.132,217.44983h5.29716l-2.03245-4.89193,2.03245,4.89193h5.29716l.00519-152.66469a9.17614,9.17614,0,0,0-.6093-3.25269,10.48078,10.48078,0,0,0-2.46524-3.74928,9.984,9.984,0,0,0-4.01136-2.42727l.02013.00629.02066.00636c-.34544-.10294-38.81708-12.371-93.053-12.37906A326.03174,326.03174,0,0,0,46.499,56.43534l-3.766,1.138.00117,3.93438L42.782,214.11385v.02872a9.56942,9.56942,0,0,0,.56556,3.14234,11.25694,11.25694,0,0,0,2.22269,3.724,10.39,10.39,0,0,0,3.69812,2.67678h0a203.43948,203.43948,0,0,0,27.00311,8.44461,283.09248,283.09248,0,0,0,67.68679,8.3458c28.29638.00059,60.6392-4.48157,93.50333-18.13425l3.26475-1.35648v-3.5355h-5.29716"
          transform="translate(-42.73306 -42.98949)"/>
    <path class="c"
          d="M235.34056,217.46649C141.25843,256.5526,51.22821,218.8172,51.22821,218.8172a5.60432,5.60432,0,0,1-3.236-4.68793s.11406-152.48134.01324-152.66268c92.94259-29.07718,183.9841-1.0323,183.9841-1.0323a4.95161,4.95161,0,0,1,3.35669,4.36916S235.63367,217.34459,235.34056,217.46649Z"
          transform="translate(-42.73306 -42.98949)"/>
    <polygon class="d" points="18.679 123.227 179.311 123.231 179.32 120.766 18.679 120.762 18.679 123.227"/>
    <path class="b"
          d="M102.3924,146.1592c-1.8145,1.1118-7.8125,3.2119-15.0391,3.208-15.25,0-26.3945-7.3838-26.3945-20.1636-.0078-12.7758,11.1533-20.17532,27.1094-20.17532a47.52555,47.52555,0,0,1,15.6894,2.61382,15.53891,15.53891,0,0,0-1.5097,4.3921l-.4414.1045a21.57475,21.57475,0,0,0-13.7383-5.0068c-11.3389.0039-20.0196,5.5771-20.0274,18.0717.0078,12.5064,8.6885,18.0635,20.0274,18.0591,6.8652.0083,11.9316-3.039,14.6777-4.6728l.2979.23238Z"
          transform="translate(-42.73306 -42.98949)"/>
    <path class="b"
          d="M87.3768,149.9492h-.0235c-16.3896,0-26.9804-8.1425-26.9804-20.7456a18.20816,18.20816,0,0,1,7.8125-15.3491c4.9062-3.5371,11.788-5.40822,19.8828-5.40822a47.43688,47.43688,0,0,1,15.8906,2.64942l.707.2574-.4258.6225a15.61841,15.61841,0,0,0-1.4218,4.1914l-.0801.3491-1.084.2574-.2246-.1934a21.1408,21.1408,0,0,0-13.3457-4.8657c-12.3662.00388-19.457,6.3794-19.457,17.4892,0,11.1055,7.082,17.4771,19.4248,17.4771,6.6806,0,11.6591-2.9629,14.333-4.5527l.3457-.2051.9551.6631-.7706,3.9345-.2167.1363C100.9471,147.7285,94.8924,149.9492,87.3768,149.9492Zm.6914-40.3388c-7.8535,0-14.4942,1.79488-19.2002,5.1875a17.07912,17.07912,0,0,0-7.3233,14.4057c0,11.8965,10.125,19.5811,25.8086,19.5811h.0235a34.39371,34.39371,0,0,0,14.4941-2.999l.4414-2.2603a27.68993,27.68993,0,0,1-14.2207,4.3198c-12.9277,0-20.6289-6.9702-20.6367-18.6416.0078-11.67532,7.7168-18.6499,20.6133-18.6538a22.409,22.409,0,0,1,13.7383,4.8301,17.98645,17.98645,0,0,1,1.1005-3.4209A48.03941,48.03941,0,0,0,88.0682,109.6104Z"
          transform="translate(-42.73306 -42.98949)"/>
    <path class="b"
          d="M205.82789,130.9258c-2.6992.0566-5.4287.1206-8.09469.1289-2.5459-.0083-5.2764-.1289-7.8057-.125l7.8702-14.3052Zm-7.0273-21.9053c-7.36329,13.3013-14.88669,26.4463-22.61129,39.6519a15.67241,15.67241,0,0,1,2.6816-.2769,14.53087,14.53087,0,0,1,2.6816.2852,131.50708,131.50708,0,0,1,6.9942-15.1489c2.9551-.0362,5.8535-.1001,8.8174-.10452,3.17179-.00388,6.36809.06442,9.46769.11282,2.5938,5.0185,6.0704,11.2417,7.419,15.13618a26.49226,26.49226,0,0,1,3.8467-.273,27.97637,27.97637,0,0,1,3.83.26912c-3.8378-6.0464-14.6709-26.5757-21.7373-39.6519Z"
          transform="translate(-42.73306 -42.98949)"/>
    <path class="b"
          d="M175.0486,149.4712l.6348-1.0923c8.2949-14.18062,15.6895-27.145,22.61129-39.63962l.1612-.30128h2.08l.169.3052c1.62111,3.0029,3.4443,6.3999,5.332,9.9248,6.3028,11.7441,13.4336,25.0537,16.3809,29.6914l.6738,1.0557-1.2441-.1646a27.33628,27.33628,0,0,0-3.6778-.2651h-.1523a25.48178,25.48178,0,0,0-3.6856.269l-.4746.064-.1601-.4492a101.43668,101.43668,0,0,0-5.6055-11.67192c-.5537-1.05178-1.09959-2.08788-1.6211-3.07908l-1.5586-.0283c-2.4004-.0401-4.8496-.0801-7.27539-.0801h-.2724c-2.0078.0039-3.9912.0322-5.9746.064l-2.4893.0361a132.36673,132.36673,0,0,0-6.793,14.7593l-.1689.4814-.4981-.1001a12.9072,12.9072,0,0,0-5.1474-.0044Zm22.5879-16.626c2.43359,0,4.88279.04008,7.291.0806l2.2657.0361.1523.3086c.56151,1.084,1.1641,2.2246,1.7744,3.38478a113.04764,113.04764,0,0,1,5.5244,11.38282,26.18245,26.18245,0,0,1,3.3731-.21682h.1523c.8516,0,1.7022.044,2.625.13232-3.25969-5.3881-9.8925-17.7465-15.7861-28.7309-1.8232-3.4053-3.5811-6.69342-5.1631-9.6201h-.6992c-6.70509,12.101-13.85159,24.6479-21.84179,38.311a13.35054,13.35054,0,0,1,3.8633.104,142.38832,142.38832,0,0,1,6.8652-14.7549l.1602-.3091,3.1718-.0444c2-.0322,3.9834-.0601,5.9991-.064Zm.0967-1.2085c-1.2119-.0039-2.4658-.0322-3.7178-.0605-1.3418-.0317-2.6738-.064-3.9589-.064l-.0157-.52192-.1133.52192-.9873.0039,8.8487-16.0922,9.02629,16.06438-1.9267.04C202.49489,131.5806,200.09359,131.6289,197.7332,131.6367Zm-6.8252-1.2851c1.0274.0083,2.0801.0322,3.1309.0566,3.6621.0923,7.21089.0362,10.80079-.04392L197.8055,117.8252Z"
          transform="translate(-42.73306 -42.98949)"/>
    <path class="b"
          d="M111.1131,131.5401c0-3.3887-.2246-6.8369-.417-10.23a20.02366,20.02366,0,0,0,2.4814.1929,19.61352,19.61352,0,0,0,2.4971-.1885c-.2168,3.376-.3857,6.8369-.4014,10.2217v6.8256c0,3.4048.2012,6.8374.4102,10.2466a17.699,17.699,0,0,0-2.5059-.20512,15.20236,15.20236,0,0,0-2.4736.209c.2012-3.40908.4092-6.84958.4014-10.26268Z"
          transform="translate(-42.73306 -42.98949)"/>
    <path class="b"
          d="M110.0779,149.3028l.0645-1.0079c.1924-3.2641.3848-6.64062.3769-9.9453l.0079-6.8095c0-2.9786-.1758-6.0464-.3448-9.0176l-.1045-1.8711.6827.0806a20.33429,20.33429,0,0,0,2.3291.1889h.2246a18.44514,18.44514,0,0,0,2.1357-.1689l.8506-.0962-.0479.6948c-.2568,4.0391-.3857,7.2788-.3935,10.1895v6.8217c0,3.2759.1855,6.5606.4023,10.21048l.0469.71832-.7139-.1041a16.82634,16.82634,0,0,0-2.417-.2011h-.0078a15.27126,15.27126,0,0,0-2.3769.2011Zm3.0352-1.48152a17.89464,17.89464,0,0,1,1.9434.11622c-.2012-3.3886-.3692-6.4804-.3692-9.5757v-6.8256c.0156-2.7662.1289-5.8213.3613-9.5635a15.80169,15.80169,0,0,1-1.7343.1123h-.2246a16.82593,16.82593,0,0,1-1.7754-.1162l.0322.4897c.1689,2.9829.3535,6.07078.3535,9.0816l-.0088,6.8095c.0088,3.1924-.1758,6.4366-.3613,9.5879A14.14865,14.14865,0,0,1,113.1131,147.82128Z"
          transform="translate(-42.73306 -42.98949)"/>
    <path class="b"
          d="M132.201,131.5362c.0156-2.7261-.041-5.4522-.1445-8.1944-3.4854,0-7.9981.1602-10.8331.4297a3.32087,3.32087,0,0,0,.2413-1.2407,3.591,3.591,0,0,0-.2334-1.2246c4.3603.1084,8.6884.1968,13.0576.2046,4.3515-.0039,8.7041-.0962,13.04-.209a3.89817,3.89817,0,0,0-.2334,1.269,3.424,3.424,0,0,0,.25,1.1968c-2.8349-.2656-7.3398-.4219-10.8242-.4297q-.15825,4.125-.1611,8.19438l.0078,6.80952c0,3.4126.1924,6.8614.4092,10.2666a18.14134,18.14134,0,0,0-2.4883-.209,16.34127,16.34127,0,0,0-2.4903.21288c.2012-3.417.418-6.84958.418-10.26658Z"
          transform="translate(-42.73306 -42.98949)"/>
    <path class="b"
          d="M131.1727,149.2989l.0888-1.39362c.1836-3.13958.3692-6.38378.3692-9.55958l-.0166-6.8095c.0166-2.3926-.0244-4.8858-.1201-7.6123-3.5743.02-7.7012.18838-10.2149.4257l-.9394.0923.3378-.8794a2.58827,2.58827,0,0,0,.2012-1.0195,2.97843,2.97843,0,0,0-.2012-1.0479l-.2656-.791.836.0196c7.7246.1889,18.2597.1933,26.0644-.0039l.8203-.0201-.25.7788a3.33114,3.33114,0,0,0-.2002,1.0801,2.73119,2.73119,0,0,0,.208,1.0039l.3223.8711-.9238-.084c-2.4649-.2329-6.5928-.40132-10.2061-.4257-.0967,2.60538-.1367,5.163-.1367,7.60838l.0088,6.80952c0,3.521.208,7.12648.4004,10.23048l.0488.71432-.707-.1001a13.6183,13.6183,0,0,0-4.8096,0Zm3.1162-1.4815a17.09532,17.09532,0,0,1,1.8623.1201c-.1846-2.9551-.3692-6.3076-.3692-9.5957l-.0088-6.80952c0-2.63768.0567-5.40038.1612-8.21878l.0244-.5576h.5625c2.9141.0078,7.0019.1201,10.0371.3613a3.53842,3.53842,0,0,1-.0488-.5586,4.26357,4.26357,0,0,1,.0566-.65432c-7.4678.19242-17.1836.18072-24.5722.00392a3.89052,3.89052,0,0,1,.0566.6348,3.49846,3.49846,0,0,1-.0488.5742c2.7148-.21292,6.6894-.3574,10.0547-.3574h.5615l.0244.5576c.1123,2.9634.1523,5.6533.1445,8.2227l.0156,6.8056c0,3.1963-.1923,6.4483-.3769,9.5918A15.624,15.624,0,0,1,134.2889,147.8174Z"
          transform="translate(-42.73306 -42.98949)"/>
    <path class="b"
          d="M151.9061,121.3101a26.22453,26.22453,0,0,0,2.7949.1968,23.09568,23.09568,0,0,0,2.7773-.2007c2.9239,4.5127,6.1348,8.9814,9.6123,13.6909a128.43836,128.43836,0,0,0,9.5635-13.687,12.92658,12.92658,0,0,0,1.9922.1968,11.65555,11.65555,0,0,0,1.9512-.2007c-6.4082,7.7046-10.0625,12.2895-12.2305,15.6142,0,3.8745.1533,9.2344.3945,11.6836a18.75325,18.75325,0,0,0-2.4736-.2085,17.57564,17.57564,0,0,0-2.4893.2129,89.291,89.291,0,0,0,.418-11.25C162.1844,134.6358,154.0262,123.7832,151.9061,121.3101Z"
          transform="translate(-42.73306 -42.98949)"/>
    <path class="b"
          d="M163.1072,149.2949l.1133-.7714a85.12218,85.12218,0,0,0,.4092-10.9727c-2.1201-2.8389-10.1016-13.4502-12.165-15.8633l-.9639-1.11622,1.4697.16072a26.02608,26.02608,0,0,0,2.7305.1928h0a23.3493,23.3493,0,0,0,2.7051-.1967l.3613-.0445.2012.30568c2.9629,4.57272,6.2558,9.13382,9.1464,13.05662a128.90569,128.90569,0,0,0,9.0411-13.0371l.2011-.333.3858.0601a12.51193,12.51193,0,0,0,3.7578-.0039l1.5498-.2652-1.0039,1.2129c-5.7656,6.9258-9.8047,11.9365-12.0928,15.4131,0,3.7544.1445,9.0059.3858,11.4551l.0722.7387-.7314-.1044a15.80667,15.80667,0,0,0-4.8018.0043Zm3.1807-1.4819a17.04768,17.04768,0,0,1,1.8311.1206c-.209-2.7344-.3379-7.5561-.3379-11.0132v-.1723l.0966-.1446a181.96495,181.96495,0,0,1,11.3301-14.5346,10.31377,10.31377,0,0,1-2.2568-.1245,127.98043,127.98043,0,0,1-9.4102,13.4223l-.4746.5782-.4414-.6021c-2.9473-3.9834-6.3594-8.6807-9.4355-13.4141a21.22789,21.22789,0,0,1-3.9424.0957c2.9472,3.67388,9.6045,12.5274,11.4346,14.9844l.121.1563v.1933a101.27032,101.27032,0,0,1-.33,10.5752A14.89971,14.89971,0,0,1,166.2879,147.813Z"
          transform="translate(-42.73306 -42.98949)"/>
    <path class="b"
          d="M87.66829,192.2071c-.1611-2.9087-.3554-6.4366-.3554-9.0044h-.0645c-.7759,2.41258-1.6489,5.0429-2.749,7.9209l-3.8472,10.11959h-2.1343l-3.5566-9.93309c-1.0357-2.9702-1.876-5.6323-2.4902-8.1074h-.065c-.0644,2.59858-.2261,6.0649-.4204,9.2212l-.582,8.94329h-2.6836l1.5195-20.85791H73.829l3.7187,10.08892c.9048,2.5678,1.6162,4.8579,2.1983,7.0244h.0644c.5825-2.1045,1.3584-4.3941,2.3291-7.0244l3.8799-10.08892h3.5894l1.3584,20.85791h-2.7813Z"
          transform="translate(-42.73306 -42.98949)"/>
    <path class="b"
          d="M113.66588,192.2071c-.1616-2.9087-.3565-6.4366-.3565-9.0044h-.0644c-.7754,2.41258-1.648,5.0429-2.7481,7.9209l-3.8476,10.11959h-2.1348l-3.5561-9.93309c-1.0352-2.9702-1.876-5.6323-2.48979-8.1074h-.0644c-.0655,2.59858-.2266,6.0649-.4209,9.2212l-.5826,8.94329h-2.6831l1.5191-20.85791h3.58979l3.71831,10.08892c.90529,2.5678,1.61669,4.8579,2.19869,7.0244h.0645c.5825-2.1045,1.3579-4.3941,2.3291-7.0244l3.8799-10.08892h3.58881l1.35789,20.85791H114.183Z"
          transform="translate(-42.73306 -42.98949)"/>
    <path class="b"
          d="M129.80108,201.70749c-5.789,0-9.79829-4.27049-9.79829-10.58389,0-6.6216,4.269-10.9532,10.08939-10.9532,5.9809,0,9.8295,4.3633,9.8295,10.5518,0,7.1479-4.5605,10.98529-10.0893,10.98529Zm.1289-2.19721c4.462,0,6.9849-3.93018,6.9849-8.66508,0-4.146-2.2646-8.478-6.9526-8.478-4.689,0-7.0171,4.1773-7.0171,8.6948,0,4.3941,2.5224,8.44828,6.95261,8.44828Z"
          transform="translate(-42.73306 -42.98949)"/>
    <path class="b"
          d="M143.57508,180.8194a25.8273,25.8273,0,0,1,5.1416-.4629c2.813,0,4.624.4629,5.9492,1.5151a4.33164,4.33164,0,0,1,1.8432,3.6826,4.97057,4.97057,0,0,1-3.6865,4.5796v.0928a5.3703,5.3703,0,0,1,2.6196,9.37649c-1.4873,1.331-3.9453,1.9497-7.5009,1.9497a34.07585,34.07585,0,0,1-4.3662-.2486Zm2.8134,8.5405h2.5542c2.9424,0,4.689-1.5161,4.689-3.5269,0-2.414-1.9082-3.4043-4.75389-3.4043a12.63439,12.63439,0,0,0-2.48931.18558Zm0,9.96479a16.04475,16.04475,0,0,0,2.3604.12359c2.9101,0,5.5942-1.021,5.5942-4.05368,0-2.8164-2.5556-4.0215-5.6264-4.0215h-2.3282Z"
          transform="translate(-42.73306 -42.98949)"/>
    <rect class="b" x="118.33513" y="137.51979" width="2.8448" height="20.85791"/>
    <polygon class="b"
             points="126.063 137.52 128.909 137.52 128.909 156.118 138.221 156.118 138.221 158.378 126.063 158.378 126.063 137.52"/>
    <rect class="b" x="141.32543" y="137.51979" width="2.8462" height="20.85791"/>
    <polygon class="b"
             points="160.338 148.599 151.899 148.599 151.899 156.118 161.34 156.118 161.34 158.378 149.053 158.378 149.053 137.52 160.855 137.52 160.855 139.78 151.899 139.78 151.899 146.37 160.338 146.37 160.338 148.599"/>
    <path class="b"
          d="M207.72688,180.8194a30.62168,30.62168,0,0,1,5.4004-.4629c3.0073,0,4.97951.5556,6.3379,1.7319a5.10216,5.10216,0,0,1,1.7139,3.9605,5.54268,5.54268,0,0,1-4.106,5.2919v.0928c1.6484.5571,2.6514,2.0425,3.20071,4.209a36.42339,36.42339,0,0,0,1.64889,5.72459h-2.9096a24.58435,24.58435,0,0,1-1.4234-4.98239c-.6465-2.8774-1.8433-3.9609-4.3975-4.0537h-2.6513v9.03609h-2.814Zm2.814,9.4687h2.87791c3.00639,0,4.91509-1.5776,4.91509-3.9604,0-2.69242-2.03809-3.8682-5.0127-3.8682a12.27442,12.27442,0,0,0-2.7803.2476Z"
          transform="translate(-42.73306 -42.98949)"/>
    <rect class="b" x="18.80883" y="137.51979" width="2.8457" height="20.85791"/>
    <path class="e"
          d="M87.66829,192.2071c-.1611-2.9087-.3554-6.4366-.3554-9.0044h-.0645c-.7759,2.41258-1.6489,5.0429-2.749,7.9209l-3.8472,10.11959h-2.1343l-3.5566-9.93309c-1.0357-2.9702-1.876-5.6323-2.4902-8.1074h-.065c-.0644,2.59858-.2261,6.0649-.4204,9.2212l-.582,8.94329h-2.6836l1.5195-20.85791H73.829l3.7187,10.08892c.9048,2.5678,1.6162,4.8579,2.1983,7.0244h.0644c.5825-2.1045,1.3584-4.3941,2.3291-7.0244l3.8799-10.08892h3.5894l1.3584,20.85791h-2.7813Z"
          transform="translate(-42.73306 -42.98949)"/>
    <path class="e"
          d="M113.66588,192.2071c-.1616-2.9087-.3565-6.4366-.3565-9.0044h-.0644c-.7754,2.41258-1.648,5.0429-2.7481,7.9209l-3.8476,10.11959h-2.1348l-3.5561-9.93309c-1.0352-2.9702-1.876-5.6323-2.48979-8.1074h-.0644c-.0655,2.59858-.2266,6.0649-.4209,9.2212l-.5826,8.94329h-2.6831l1.5191-20.85791h3.58979l3.71831,10.08892c.90529,2.5678,1.61669,4.8579,2.19869,7.0244h.0645c.5825-2.1045,1.3579-4.3941,2.3291-7.0244l3.8799-10.08892h3.58881l1.35789,20.85791H114.183Z"
          transform="translate(-42.73306 -42.98949)"/>
    <path class="e"
          d="M129.80108,201.70749c-5.789,0-9.79829-4.27049-9.79829-10.58389,0-6.6216,4.269-10.9532,10.08939-10.9532,5.9809,0,9.8295,4.3633,9.8295,10.5518,0,7.1479-4.5605,10.98529-10.0893,10.98529Zm.1289-2.19721c4.462,0,6.9849-3.93018,6.9849-8.66508,0-4.146-2.2646-8.478-6.9526-8.478-4.689,0-7.0171,4.1773-7.0171,8.6948,0,4.3941,2.5224,8.44828,6.95261,8.44828Z"
          transform="translate(-42.73306 -42.98949)"/>
    <path class="e"
          d="M143.57508,180.8194a25.8273,25.8273,0,0,1,5.1416-.4629c2.813,0,4.624.4629,5.9492,1.5151a4.33164,4.33164,0,0,1,1.8432,3.6826,4.97057,4.97057,0,0,1-3.6865,4.5796v.0928a5.3703,5.3703,0,0,1,2.6196,9.37649c-1.4873,1.331-3.9453,1.9497-7.5009,1.9497a34.07585,34.07585,0,0,1-4.3662-.2486Zm2.8134,8.5405h2.5542c2.9424,0,4.689-1.5161,4.689-3.5269,0-2.414-1.9082-3.4043-4.75389-3.4043a12.63439,12.63439,0,0,0-2.48931.18558Zm0,9.96479a16.04475,16.04475,0,0,0,2.3604.12359c2.9101,0,5.5942-1.021,5.5942-4.05368,0-2.8164-2.5556-4.0215-5.6264-4.0215h-2.3282Z"
          transform="translate(-42.73306 -42.98949)"/>
    <rect class="e" x="118.33513" y="137.51979" width="2.8448" height="20.85791"/>
    <polygon class="e"
             points="126.063 137.52 128.909 137.52 128.909 156.118 138.221 156.118 138.221 158.378 126.063 158.378 126.063 137.52"/>
    <rect class="e" x="141.32543" y="137.51979" width="2.8462" height="20.85791"/>
    <polygon class="e"
             points="160.338 148.599 151.899 148.599 151.899 156.118 161.34 156.118 161.34 158.378 149.053 158.378 149.053 137.52 160.855 137.52 160.855 139.78 151.899 139.78 151.899 146.37 160.338 146.37 160.338 148.599"/>
    <path class="e"
          d="M207.72688,180.8194a30.62168,30.62168,0,0,1,5.4004-.4629c3.0073,0,4.97951.5556,6.3379,1.7319a5.10216,5.10216,0,0,1,1.7139,3.9605,5.54268,5.54268,0,0,1-4.106,5.2919v.0928c1.6484.5571,2.6514,2.0425,3.20071,4.209a36.42339,36.42339,0,0,0,1.64889,5.72459h-2.9096a24.58435,24.58435,0,0,1-1.4234-4.98239c-.6465-2.8774-1.8433-3.9609-4.3975-4.0537h-2.6513v9.03609h-2.814Zm2.814,9.4687h2.87791c3.00639,0,4.91509-1.5776,4.91509-3.9604,0-2.69242-2.03809-3.8682-5.0127-3.8682a12.27442,12.27442,0,0,0-2.7803.2476Z"
          transform="translate(-42.73306 -42.98949)"/>
    <rect class="e" x="18.80883" y="137.51979" width="2.8457" height="20.85791"/>
    <g class="f">
        <g class="f">
            <path class="b"
                  d="M168.22133,72.68762l6.32728,0s.56218-.01.56218-.7663c.01-.77189-.55716-.80423-.56218-.80535l-58.12287-.00007s-.5672.00112-.5672.80535c0,.80367.56719.7663.56719.7663l6.48791-.00167c1.00668,0,1.41938.812.54823,1.02174-4.841,1.16116-7.31667,4.58164-7.73887,7.84373a9.42754,9.42754,0,0,0,2.45785,8.13319,9.27785,9.27785,0,0,0,7.43992,3.12155,7.369,7.369,0,0,0,4.94471-1.90906c.72726-.64417-1.1634.11154-1.60567.1701a8.11936,8.11936,0,0,1-4.4422-.21529c-6.58327-1.7847-6.14155-11.97809-.94643-12.76781-3.34072,1.38815-3.89677,9.28766,2.46175,10.388a5.38923,5.38923,0,0,0,3.17005-.40434,3.793,3.793,0,0,0,2.10817-4.76792c-.53987,1.0591-2.60119,3.18567-5.15608,1.81369-2.01224-1.07975-2.08418-4.61233.11043-6.05625a6.41983,6.41983,0,0,1,7.69313.85555c.81761.56329,3.63741,5.57549-1.49023,9.76283a2.29424,2.29424,0,0,0-1.05464,2.27939l0,16.45878a34.74111,34.74111,0,0,1,3.91516-2.102l0-14.9167s.01171-.73618,1.13941-.73618c1.1316,0,1.1316.73619,1.1316.73619l0,13.96077q1.88229-.72782,3.923-1.30227l0-12.6585s-.03513-.73619,1.09368-.73618c1.12938,0,1.17846.73618,1.17846.73618l0,12.0835c1.28108-.29057,2.59952-.53373,3.9464-.72726l0-11.35623s.082-.73619,1.19519-.73619c1.11431,0,1.09479.73619,1.09479.73619l-.01674,11.0824q1.09089-.10793,2.208-.17066.87423-.04686,1.73729-.06637l0-10.90169s.00446-.69269,1.07025-.69269c1.07026,0,1.19965.70942,1.19965.70942l0,10.88385c1.33071.02788,2.63744.10931,3.91684.237l0-10.92568s6.18673,3.07526,11.272-1.54988a9.5048,9.5048,0,0,0,3.06967-6.10142,8.84408,8.84408,0,0,0-6.5102-9.97478c-1.71665-.47963-.62185-1.26211.24317-1.237M163.715,86.31431a3.37235,3.37235,0,0,0,2.53593.78918,5.51421,5.51421,0,0,0,4.94359-4.8209c.66536-4.61344-4.02893-6.92016-3.78242-6.85658,6.8995,1.74455,6.36129,10.01939,2.77239,13.09074a8.01234,8.01234,0,0,1-10.01657.78971,5.1731,5.1731,0,0,1-1.49244-6.8694c1.29446-2.29891,4.78409-2.10314,5.32117-1.71553-.25265-1.45676-4.12821-3.88395-8.01214-2.05408-1.7886.831-4.716,2.1617-6.12316,2.63186-4.648,1.43779-6.8705.34633-8.63623-.88232-3.68872-2.83823-4.76065-3.29388-6.80914-3.58334-.01562-.00223,18.505,0,18.505,0s-4.30557,3.23587-3.4623,3.24647a20.95909,20.95909,0,0,0,3.6575-1.66144c.63468-.31957,6.77346-3.91461,11.69752-.19295,4.92685,3.72444,2.04513,8.37914-1.0987,8.08856"
                  transform="translate(-42.73306 -42.98949)"/>
        </g>
    </g>
</svg>
